<svg xmlns="http://www.w3.org/2000/svg" width="1549.28" height="99.45" viewBox="0 0 1549.28 99.45"><defs><style>.a{fill:#fff;}</style></defs><title>visit-scotland</title><path class="a" d="M65.83,97.45a4.43,4.43,0,0,1-4,2.69H43.41a4.43,4.43,0,0,1-4-2.69L3,7.31a2,2,0,0,1,1.83-2.7H25.66a4.26,4.26,0,0,1,3.92,2.7L51.74,66.47a.9.9,0,0,0,1.72,0L75.75,7.31a4.26,4.26,0,0,1,3.92-2.7h20.82a2,2,0,0,1,1.83,2.7Z" transform="translate(-2.86 -2.78)"/><path class="a" d="M115.14,7.55a3,3,0,0,1,2.94-2.94H136.7a3,3,0,0,1,2.94,2.94V97.21a3,3,0,0,1-2.94,2.94H118.08a3,3,0,0,1-2.94-2.94Z" transform="translate(-2.86 -2.78)"/><path class="a" d="M156.66,74.91a3.38,3.38,0,0,1,3.18-3.43h16.54c2.82,0,3.43.61,4.9,3.19,1.71,3.18,6.73,6.12,15.31,6.12,9.19,0,12.13-3.06,12.13-5.88,0-4-4.78-6.49-16.29-10.41-15.19-5-35.15-12.37-35.15-32.09,0-18.25,15.55-29.64,37.35-29.64,22.29,0,37.85,11.63,39.07,28.78A3.38,3.38,0,0,1,230.51,35h-17c-2.33,0-3.43-1.1-4.16-3.31-1.47-4-6.13-7.72-14.21-7.72-8.33,0-11.63,3.31-11.63,6.49,0,3.8,4.41,5.75,15.8,9.67C212.51,44.78,235,52.62,235,73.57c0,18.61-16.17,28.42-38,28.42S158.37,92.43,156.66,74.91Z" transform="translate(-2.86 -2.78)"/><path class="a" d="M252.37,7.55a3,3,0,0,1,2.94-2.94h18.62a3,3,0,0,1,2.94,2.94V97.21a3,3,0,0,1-2.94,2.94H255.31a3,3,0,0,1-2.94-2.94Z" transform="translate(-2.86 -2.78)"/><path class="a" d="M292.47,28.37a3,3,0,0,1-2.94-2.94V7.55a3,3,0,0,1,2.94-2.94h78.14a3,3,0,0,1,2.94,2.94V25.43a3,3,0,0,1-2.94,2.94H346.23a2.46,2.46,0,0,0-2.45,2.45V97.21a3,3,0,0,1-2.94,2.94H322.23a3,3,0,0,1-2.94-2.94V30.82a2.46,2.46,0,0,0-2.45-2.45Z" transform="translate(-2.86 -2.78)"/><path class="a" d="M384.16,74.91a3.38,3.38,0,0,1,3.18-3.43h16.54c2.82,0,3.43.61,4.9,3.19,1.71,3.18,6.73,6.12,15.31,6.12,9.19,0,12.13-3.06,12.13-5.88,0-4-4.78-6.49-16.29-10.41-15.19-5-35.15-12.37-35.15-32.09,0-18.25,15.55-29.64,37.35-29.64,22.29,0,37.85,11.63,39.07,28.78A3.38,3.38,0,0,1,458,35H441c-2.33,0-3.43-1.1-4.16-3.31-1.47-4-6.13-7.72-14.21-7.72C414.29,24,411,27.27,411,30.46c0,3.8,4.41,5.75,15.8,9.67,13.23,4.66,35.76,12.49,35.76,33.44,0,18.61-16.17,28.42-38,28.42S385.88,92.43,384.16,74.91Z" transform="translate(-2.86 -2.78)"/><path class="a" d="M546.34,67.32A3.25,3.25,0,0,1,550.63,66l17,7.47a2.54,2.54,0,0,1,1.1,3.67A50.68,50.68,0,0,1,524.91,102c-27.56,0-50.7-22.29-50.7-49.61s23.15-49.6,50.7-49.6A50.93,50.93,0,0,1,568.63,27.4a2.81,2.81,0,0,1-1.1,3.8l-16.9,7.47a3.1,3.1,0,0,1-4.29-1.23,26,26,0,1,0,0,29.88Z" transform="translate(-2.86 -2.78)"/><path class="a" d="M578.53,52.38c0-27.31,23.15-49.6,50.7-49.6,27.93,0,50.7,22.29,50.7,49.6S657.16,102,629.23,102C601.68,102,578.53,79.69,578.53,52.38Zm24.74,0a26,26,0,1,0,26-26A25.9,25.9,0,0,0,603.27,52.38Z" transform="translate(-2.86 -2.78)"/><path class="a" d="M690.47,28.37a3,3,0,0,1-2.94-2.94V7.55a3,3,0,0,1,2.94-2.94H768.6a3,3,0,0,1,2.94,2.94V25.43a3,3,0,0,1-2.94,2.94H744.23a2.46,2.46,0,0,0-2.45,2.45V97.21a3,3,0,0,1-2.94,2.94H720.22a3,3,0,0,1-2.94-2.94V30.82a2.46,2.46,0,0,0-2.45-2.45Z" transform="translate(-2.86 -2.78)"/><path class="a" d="M787.34,100.14a3,3,0,0,1-2.94-2.94V7.55a3,3,0,0,1,2.94-2.94h18.5a3,3,0,0,1,2.94,2.94v66.5a2.46,2.46,0,0,0,2.45,2.45h40.42a3,3,0,0,1,2.94,2.94V97.21a3,3,0,0,1-2.94,2.94Z" transform="translate(-2.86 -2.78)"/><path class="a" d="M901.06,7.31a4.43,4.43,0,0,1,4-2.7h18.37a4.43,4.43,0,0,1,4,2.7l36.37,90.14a2,2,0,0,1-1.83,2.69H941.23a4.26,4.26,0,0,1-3.92-2.69l-3.43-8.94a3.58,3.58,0,0,0-3.31-2.32h-32.7a3.58,3.58,0,0,0-3.31,2.32l-3.43,8.94a4.26,4.26,0,0,1-3.92,2.69H866.4a2,2,0,0,1-1.83-2.69ZM922.25,64a1.73,1.73,0,0,0,1.59-2.32l-8.7-23.39a.89.89,0,0,0-1.72,0l-8.82,23.39A1.73,1.73,0,0,0,906.21,64Z" transform="translate(-2.86 -2.78)"/><path class="a" d="M1001.08,97.21a3,3,0,0,1-2.94,2.94h-18.5a3,3,0,0,1-2.94-2.94V7.55a3,3,0,0,1,2.94-2.94h14.82a6,6,0,0,1,4.77,2.33l39.31,49.11a.79.79,0,0,0,1.47-.49v-48A3,3,0,0,1,1043,4.61h18.5a3,3,0,0,1,2.94,2.94V97.21a3,3,0,0,1-2.94,2.94h-14.82a6.05,6.05,0,0,1-4.78-2.32l-39.31-49a.79.79,0,0,0-1.47.49Z" transform="translate(-2.86 -2.78)"/><path class="a" d="M1088.39,100.14a3,3,0,0,1-2.94-2.94V7.55a3,3,0,0,1,2.94-2.94h41.4c29.88,0,45.19,21.8,45.19,47.77s-15.31,47.77-45.19,47.77ZM1128,28.37H1112.4a2.46,2.46,0,0,0-2.45,2.45V74.06a2.46,2.46,0,0,0,2.45,2.45H1128c14.58,0,22.29-9.8,22.29-24.13S1142.53,28.37,1128,28.37Z" transform="translate(-2.86 -2.78)"/><path class="a" d="M1185.69,86.79a15.43,15.43,0,1,1,15.43,15.43A15.53,15.53,0,0,1,1185.69,86.79Z" transform="translate(-2.86 -2.78)"/><path class="a" d="M1297.67,67.32A3.25,3.25,0,0,1,1302,66l17,7.47a2.54,2.54,0,0,1,1.1,3.67A50.68,50.68,0,0,1,1276.23,102c-27.56,0-50.7-22.29-50.7-49.61s23.15-49.6,50.7-49.6A50.93,50.93,0,0,1,1320,27.4a2.81,2.81,0,0,1-1.1,3.8L1302,38.66a3.1,3.1,0,0,1-4.29-1.23,26,26,0,1,0,0,29.88Z" transform="translate(-2.86 -2.78)"/><path class="a" d="M1329.85,52.38c0-27.31,23.15-49.6,50.7-49.6,27.93,0,50.7,22.29,50.7,49.6S1408.48,102,1380.56,102C1353,102,1329.85,79.69,1329.85,52.38Zm24.74,0a26,26,0,1,0,26-26A25.9,25.9,0,0,0,1354.59,52.38Z" transform="translate(-2.86 -2.78)"/><path class="a" d="M1472,97.21a3,3,0,0,1-2.94,2.94h-18.5a3,3,0,0,1-2.94-2.94V7.55a3,3,0,0,1,2.94-2.94h18.74a5.22,5.22,0,0,1,4.29,2.58l25.1,50a1.2,1.2,0,0,0,2.21,0l25.23-50a5.21,5.21,0,0,1,4.29-2.58h18.74a3,3,0,0,1,2.94,2.94V97.21a3,3,0,0,1-2.94,2.94h-18.49a3,3,0,0,1-2.94-2.94V53.6a.58.58,0,0,0-1.1-.25l-17.39,34.9a5.2,5.2,0,0,1-4.28,2.57h-10.17a5.22,5.22,0,0,1-4.29-2.57l-17.39-34.9a.58.58,0,0,0-1.1.25Z" transform="translate(-2.86 -2.78)"/></svg>